<?xml version="1.0" encoding="UTF-8" standalone="no"?>
<!DOCTYPE svg PUBLIC "-//W3C//DTD SVG 1.1//EN"
 "http://www.w3.org/Graphics/SVG/1.1/DTD/svg11.dtd">
<!-- Generated by graphviz version 2.43.0 (0)
 -->
<!-- Title: G Pages: 1 -->
<svg width="932pt" height="782pt"
 viewBox="0.00 0.00 932.00 782.00" xmlns="http://www.w3.org/2000/svg" xmlns:xlink="http://www.w3.org/1999/xlink">
<g id="graph0" class="graph" transform="scale(1 1) rotate(0) translate(4 778)">
<title>G</title>
<polygon fill="white" stroke="transparent" points="-4,4 -4,-778 928,-778 928,4 -4,4"/>
<g id="clust1" class="cluster">
<title>cluster_root</title>
<g id="a_clust1"><a xlink:title="eventq_index=0&#10;full_system=false&#10;sim_quantum=0&#10;time_sync_enable=false&#10;time_sync_period=100000000000&#10;time_sync_spin_threshold=100000000">
<path fill="#bab6ae" stroke="#000000" d="M20,-8C20,-8 904,-8 904,-8 910,-8 916,-14 916,-20 916,-20 916,-754 916,-754 916,-760 910,-766 904,-766 904,-766 20,-766 20,-766 14,-766 8,-760 8,-754 8,-754 8,-20 8,-20 8,-14 14,-8 20,-8"/>
<text text-anchor="middle" x="462" y="-750.8" font-family="Arial" font-size="14.00" fill="#000000">root </text>
<text text-anchor="middle" x="462" y="-735.8" font-family="Arial" font-size="14.00" fill="#000000">: Root</text>
</a>
</g>
</g>
<g id="clust2" class="cluster">
<title>cluster_board</title>
<g id="a_clust2"><a xlink:title="auto_unlink_shared_backstore=false&#10;cache_line_size=64&#10;eventq_index=0&#10;exit_on_work_items=true&#10;external_memory_ranges=&#10;init_param=0&#10;m5ops_base=7516192768&#10;mem_mode=timing&#10;mem_ranges=0:7516192768&#10;memories=board.memory.mem_ctrl.dram&#10;mmap_using_noreserve=false&#10;multi_thread=false&#10;&#10;um_work_ids=16&#10;&#13;eadfile=&#10;&#13;edirect_paths=&#10;shadow_rom_ranges=&#10;shared_backstore=&#10;symbolfile=&#10;thermal_components=&#10;thermal_model=Null&#10;work_begin_ckpt_count=0&#10;work_begin_cpu_id_exit=&#45;1&#10;work_begin_exit_count=0&#10;work_cpus_ckpt_count=0&#10;work_end_ckpt_count=0&#10;work_end_exit_count=0&#10;work_item_id=&#45;1&#10;workload=board.workload">
<path fill="#e4e7eb" stroke="#000000" d="M28,-16C28,-16 896,-16 896,-16 902,-16 908,-22 908,-28 908,-28 908,-708 908,-708 908,-714 902,-720 896,-720 896,-720 28,-720 28,-720 22,-720 16,-714 16,-708 16,-708 16,-28 16,-28 16,-22 22,-16 28,-16"/>
<text text-anchor="middle" x="462" y="-704.8" font-family="Arial" font-size="14.00" fill="#000000">board </text>
<text text-anchor="middle" x="462" y="-689.8" font-family="Arial" font-size="14.00" fill="#000000">: SimpleBoard</text>
</a>
</g>
</g>
<g id="clust6" class="cluster">
<title>cluster_board_processor</title>
<g id="a_clust6"><a xlink:title="eventq_index=0&#10;thermal_domain=Null">
<path fill="#bab6ae" stroke="#000000" d="M284,-314C284,-314 888,-314 888,-314 894,-314 900,-320 900,-326 900,-326 900,-662 900,-662 900,-668 894,-674 888,-674 888,-674 284,-674 284,-674 278,-674 272,-668 272,-662 272,-662 272,-326 272,-326 272,-320 278,-314 284,-314"/>
<text text-anchor="middle" x="586" y="-658.8" font-family="Arial" font-size="14.00" fill="#000000">processor </text>
<text text-anchor="middle" x="586" y="-643.8" font-family="Arial" font-size="14.00" fill="#000000">: SimpleProcessor</text>
</a>
</g>
</g>
<g id="clust7" class="cluster">
<title>cluster_board_processor_cores</title>
<g id="a_clust7"><a xlink:title="eventq_index=0&#10;thermal_domain=Null">
<path fill="#9f9c95" stroke="#000000" d="M292,-322C292,-322 880,-322 880,-322 886,-322 892,-328 892,-334 892,-334 892,-616 892,-616 892,-622 886,-628 880,-628 880,-628 292,-628 292,-628 286,-628 280,-622 280,-616 280,-616 280,-334 280,-334 280,-328 286,-322 292,-322"/>
<text text-anchor="middle" x="586" y="-612.8" font-family="Arial" font-size="14.00" fill="#000000">cores </text>
<text text-anchor="middle" x="586" y="-597.8" font-family="Arial" font-size="14.00" fill="#000000">: SimpleCore</text>
</a>
</g>
</g>
<g id="clust8" class="cluster">
<title>cluster_board_processor_cores_core</title>
<g id="a_clust8"><a xlink:title="LFSTSize=1024&#10;LQEntries=32&#10;LSQCheckLoads=true&#10;LSQDepCheckShift=4&#10;SQEntries=32&#10;SSITAssoc=1&#10;SSITIndexingPolicy=board.processor.cores.core.SSITIndexingPolicy&#10;SSITReplPolicy=board.processor.cores.core.SSITReplPolicy&#10;SSITSize=1024&#10;activity=0&#10;bacToFetchDelay=1&#10;backComSize=5&#10;branchPred=board.processor.cores.core.branchPred&#10;cacheLoadPorts=200&#10;cacheStorePorts=200&#10;checker=Null&#10;clk_domain=board.clk_domain&#10;commitToDecodeDelay=1&#10;commitToFetchDelay=1&#10;commitToIEWDelay=1&#10;commitToRenameDelay=1&#10;commitWidth=8&#10;cpu_id=0&#10;decodeToFetchDelay=1&#10;decodeToRenameDelay=1&#10;decodeWidth=8&#10;decoder=board.processor.cores.core.decoder&#10;decoupledFrontEnd=false&#10;dispatchWidth=8&#10;do_checkpoint_insts=true&#10;do_statistics_insts=true&#10;eventq_index=0&#10;fetchBufferSize=64&#10;fetchQueueSize=32&#10;fetchTargetWidth=32&#10;fetchToBacDelay=1&#10;fetchToDecodeDelay=1&#10;fetchTrapLatency=1&#10;fetchWidth=8&#10;forwardComSize=5&#10;function_trace=false&#10;function_trace_start=0&#10;iewToCommitDelay=1&#10;iewToDecodeDelay=1&#10;iewToFetchDelay=1&#10;iewToRenameDelay=1&#10;instQueues=board.processor.cores.core.instQueues&#10;interrupts=board.processor.cores.core.interrupts&#10;isa=board.processor.cores.core.isa&#10;issueToExecuteDelay=1&#10;issueWidth=8&#10;maxFTPerCycle=4&#10;maxTakenPredPerCycle=1&#10;max_insts_all_threads=0&#10;max_insts_any_thread=0&#10;minInstSize=1&#10;mmu=board.processor.cores.core.mmu&#10;&#10;eedsTSO=false&#10;&#10;umFTQEntries=8&#10;&#10;umPhysCCRegs=0&#10;&#10;umPhysFloatRegs=256&#10;&#10;umPhysIntRegs=256&#10;&#10;umPhysMatRegs=2&#10;&#10;umPhysVecPredRegs=32&#10;&#10;umPhysVecRegs=256&#10;&#10;umROBEntries=192&#10;&#10;umRobs=1&#10;&#10;umThreads=1&#10;power_gating_on_idle=false&#10;power_model=&#10;power_state=board.processor.cores.core.power_state&#10;progress_interval=0&#10;pwr_gating_latency=300&#10;&#13;ecvRespBufferSize=64&#10;&#13;ecvRespMaxCachelines=1&#10;&#13;ecvRespThrottling=false&#10;&#13;enameToDecodeDelay=1&#10;&#13;enameToFetchDelay=1&#10;&#13;enameToIEWDelay=2&#10;&#13;enameToROBDelay=1&#10;&#13;enameWidth=8&#10;simpoint_start_insts=&#10;smtCommitPolicy=RoundRobin&#10;smtFetchPolicy=RoundRobin&#10;smtLSQPolicy=Partitioned&#10;smtLSQThreshold=100&#10;smtNumFetchingThreads=1&#10;smtROBPolicy=Partitioned&#10;smtROBThreshold=100&#10;socket_id=0&#10;squashWidth=NullOpt&#10;store_set_clear_period=250000&#10;switched_out=false&#10;syscallRetryLatency=10000&#10;system=board&#10;tracer=board.processor.cores.core.tracer&#10;trapLatency=13&#10;wbWidth=8&#10;workload=board.processor.cores.core.workload">
<path fill="#bbc6d9" stroke="#000000" d="M300,-330C300,-330 872,-330 872,-330 878,-330 884,-336 884,-342 884,-342 884,-570 884,-570 884,-576 878,-582 872,-582 872,-582 300,-582 300,-582 294,-582 288,-576 288,-570 288,-570 288,-342 288,-342 288,-336 294,-330 300,-330"/>
<text text-anchor="middle" x="586" y="-566.8" font-family="Arial" font-size="14.00" fill="#000000">core </text>
<text text-anchor="middle" x="586" y="-551.8" font-family="Arial" font-size="14.00" fill="#000000">: RiscvO3CPU</text>
</a>
</g>
</g>
<g id="clust9" class="cluster">
<title>cluster_board_processor_cores_core_mmu</title>
<g id="a_clust9"><a xlink:title="dtb=board.processor.cores.core.mmu.dtb&#10;eventq_index=0&#10;itb=board.processor.cores.core.mmu.itb&#10;pma_checker=board.processor.cores.core.mmu.pma_checker&#10;pmp=board.processor.cores.core.mmu.pmp">
<path fill="#bab6ae" stroke="#000000" d="M308,-338C308,-338 660,-338 660,-338 666,-338 672,-344 672,-350 672,-350 672,-524 672,-524 672,-530 666,-536 660,-536 660,-536 308,-536 308,-536 302,-536 296,-530 296,-524 296,-524 296,-350 296,-350 296,-344 302,-338 308,-338"/>
<text text-anchor="middle" x="484" y="-520.8" font-family="Arial" font-size="14.00" fill="#000000">mmu </text>
<text text-anchor="middle" x="484" y="-505.8" font-family="Arial" font-size="14.00" fill="#000000">: RiscvMMU</text>
</a>
</g>
</g>
<g id="clust10" class="cluster">
<title>cluster_board_processor_cores_core_mmu_itb</title>
<g id="a_clust10"><a xlink:title="entry_type=instruction&#10;eventq_index=0&#10;&#10;ext_level=Null&#10;pma_checker=board.processor.cores.core.mmu.pma_checker&#10;pmp=board.processor.cores.core.mmu.pmp&#10;size=64&#10;walker=board.processor.cores.core.mmu.itb.walker">
<path fill="#9f9c95" stroke="#000000" d="M500,-346C500,-346 652,-346 652,-346 658,-346 664,-352 664,-358 664,-358 664,-478 664,-478 664,-484 658,-490 652,-490 652,-490 500,-490 500,-490 494,-490 488,-484 488,-478 488,-478 488,-358 488,-358 488,-352 494,-346 500,-346"/>
<text text-anchor="middle" x="576" y="-474.8" font-family="Arial" font-size="14.00" fill="#000000">itb </text>
<text text-anchor="middle" x="576" y="-459.8" font-family="Arial" font-size="14.00" fill="#000000">: RiscvTLB</text>
</a>
</g>
</g>
<g id="clust11" class="cluster">
<title>cluster_board_processor_cores_core_mmu_itb_walker</title>
<g id="a_clust11"><a xlink:title="clk_domain=board.clk_domain&#10;eventq_index=0&#10;&#10;um_squash_per_cycle=4&#10;pma_checker=board.processor.cores.core.mmu.pma_checker&#10;pmp=board.processor.cores.core.mmu.pmp&#10;power_model=&#10;power_state=board.processor.cores.core.mmu.itb.walker.power_state&#10;system=board">
<path fill="#84827c" stroke="#000000" d="M508,-354C508,-354 644,-354 644,-354 650,-354 656,-360 656,-366 656,-366 656,-432 656,-432 656,-438 650,-444 644,-444 644,-444 508,-444 508,-444 502,-444 496,-438 496,-432 496,-432 496,-366 496,-366 496,-360 502,-354 508,-354"/>
<text text-anchor="middle" x="576" y="-428.8" font-family="Arial" font-size="14.00" fill="#000000">walker </text>
<text text-anchor="middle" x="576" y="-413.8" font-family="Arial" font-size="14.00" fill="#000000">: RiscvPagetableWalker</text>
</a>
</g>
</g>
<g id="clust13" class="cluster">
<title>cluster_board_processor_cores_core_mmu_dtb</title>
<g id="a_clust13"><a xlink:title="entry_type=data&#10;eventq_index=0&#10;&#10;ext_level=Null&#10;pma_checker=board.processor.cores.core.mmu.pma_checker&#10;pmp=board.processor.cores.core.mmu.pmp&#10;size=64&#10;walker=board.processor.cores.core.mmu.dtb.walker">
<path fill="#9f9c95" stroke="#000000" d="M316,-346C316,-346 468,-346 468,-346 474,-346 480,-352 480,-358 480,-358 480,-478 480,-478 480,-484 474,-490 468,-490 468,-490 316,-490 316,-490 310,-490 304,-484 304,-478 304,-478 304,-358 304,-358 304,-352 310,-346 316,-346"/>
<text text-anchor="middle" x="392" y="-474.8" font-family="Arial" font-size="14.00" fill="#000000">dtb </text>
<text text-anchor="middle" x="392" y="-459.8" font-family="Arial" font-size="14.00" fill="#000000">: RiscvTLB</text>
</a>
</g>
</g>
<g id="clust14" class="cluster">
<title>cluster_board_processor_cores_core_mmu_dtb_walker</title>
<g id="a_clust14"><a xlink:title="clk_domain=board.clk_domain&#10;eventq_index=0&#10;&#10;um_squash_per_cycle=4&#10;pma_checker=board.processor.cores.core.mmu.pma_checker&#10;pmp=board.processor.cores.core.mmu.pmp&#10;power_model=&#10;power_state=board.processor.cores.core.mmu.dtb.walker.power_state&#10;system=board">
<path fill="#84827c" stroke="#000000" d="M324,-354C324,-354 460,-354 460,-354 466,-354 472,-360 472,-366 472,-366 472,-432 472,-432 472,-438 466,-444 460,-444 460,-444 324,-444 324,-444 318,-444 312,-438 312,-432 312,-432 312,-366 312,-366 312,-360 318,-354 324,-354"/>
<text text-anchor="middle" x="392" y="-428.8" font-family="Arial" font-size="14.00" fill="#000000">walker </text>
<text text-anchor="middle" x="392" y="-413.8" font-family="Arial" font-size="14.00" fill="#000000">: RiscvPagetableWalker</text>
</a>
</g>
</g>
<g id="clust155" class="cluster">
<title>cluster_board_memory</title>
<g id="a_clust155"><a xlink:title="eventq_index=0&#10;thermal_domain=Null">
<path fill="#bab6ae" stroke="#000000" d="M136,-346C136,-346 252,-346 252,-346 258,-346 264,-352 264,-358 264,-358 264,-478 264,-478 264,-484 258,-490 252,-490 252,-490 136,-490 136,-490 130,-490 124,-484 124,-478 124,-478 124,-358 124,-358 124,-352 130,-346 136,-346"/>
<text text-anchor="middle" x="194" y="-474.8" font-family="Arial" font-size="14.00" fill="#000000">memory </text>
<text text-anchor="middle" x="194" y="-459.8" font-family="Arial" font-size="14.00" fill="#000000">: ChanneledMemory</text>
</a>
</g>
</g>
<g id="clust156" class="cluster">
<title>cluster_board_memory_mem_ctrl</title>
<g id="a_clust156"><a xlink:title="clk_domain=board.clk_domain&#10;command_window=10000&#10;disable_sanity_check=false&#10;dram=board.memory.mem_ctrl.dram&#10;eventq_index=0&#10;mem_sched_policy=frfcfs&#10;min_reads_per_switch=16&#10;min_writes_per_switch=16&#10;power_model=&#10;power_state=board.memory.mem_ctrl.power_state&#10;qos_policy=Null&#10;qos_priorities=1&#10;qos_priority_escalation=false&#10;qos_q_policy=fifo&#10;qos_requestors= &#160;&#160;&#160;&#160;&#160;&#160;&#160;&#160;&#160;&#160;&#160;&#160;&#160;&#160;&#10;qos_syncro_scheduler=false&#10;qos_turnaround_policy=Null&#10;static_backend_latency=10000&#10;static_frontend_latency=10000&#10;system=board&#10;write_high_thresh_perc=85&#10;write_low_thresh_perc=50">
<path fill="#9f9c95" stroke="#000000" d="M191,-354C191,-354 244,-354 244,-354 250,-354 256,-360 256,-366 256,-366 256,-432 256,-432 256,-438 250,-444 244,-444 244,-444 191,-444 191,-444 185,-444 179,-438 179,-432 179,-432 179,-366 179,-366 179,-360 185,-354 191,-354"/>
<text text-anchor="middle" x="217.5" y="-428.8" font-family="Arial" font-size="14.00" fill="#000000">mem_ctrl </text>
<text text-anchor="middle" x="217.5" y="-413.8" font-family="Arial" font-size="14.00" fill="#000000">: MemCtrl</text>
</a>
</g>
</g>
<g id="clust160" class="cluster">
<title>cluster_board_cache_hierarchy</title>
<g id="a_clust160"><a xlink:title="eventq_index=0&#10;thermal_domain=Null">
<path fill="#bab6ae" stroke="#000000" d="M154,-24C154,-24 870,-24 870,-24 876,-24 882,-30 882,-36 882,-36 882,-294 882,-294 882,-300 876,-306 870,-306 870,-306 154,-306 154,-306 148,-306 142,-300 142,-294 142,-294 142,-36 142,-36 142,-30 148,-24 154,-24"/>
<text text-anchor="middle" x="512" y="-290.8" font-family="Arial" font-size="14.00" fill="#000000">cache_hierarchy </text>
<text text-anchor="middle" x="512" y="-275.8" font-family="Arial" font-size="14.00" fill="#000000">: PrivateL1CacheHierarchy</text>
</a>
</g>
</g>
<g id="clust161" class="cluster">
<title>cluster_board_cache_hierarchy_membus</title>
<g id="a_clust161"><a xlink:title="clk_domain=board.clk_domain&#10;eventq_index=0&#10;forward_latency=4&#10;frontend_latency=3&#10;header_latency=1&#10;max_outstanding_snoops=512&#10;max_routing_table_size=512&#10;point_of_coherency=true&#10;point_of_unification=true&#10;power_model=&#10;power_state=board.cache_hierarchy.membus.power_state&#10;&#13;esponse_latency=2&#10;snoop_filter=board.cache_hierarchy.membus.snoop_filter&#10;snoop_response_latency=4&#10;system=board&#10;use_default_range=false&#10;width=64">
<path fill="#6f798c" stroke="#000000" d="M162,-32C162,-32 474,-32 474,-32 480,-32 486,-38 486,-44 486,-44 486,-248 486,-248 486,-254 480,-260 474,-260 474,-260 162,-260 162,-260 156,-260 150,-254 150,-248 150,-248 150,-44 150,-44 150,-38 156,-32 162,-32"/>
<text text-anchor="middle" x="318" y="-244.8" font-family="Arial" font-size="14.00" fill="#000000">membus </text>
<text text-anchor="middle" x="318" y="-229.8" font-family="Arial" font-size="14.00" fill="#000000">: SystemXBar</text>
</a>
</g>
</g>
<g id="clust164" class="cluster">
<title>cluster_board_cache_hierarchy_membus_badaddr_responder</title>
<g id="a_clust164"><a xlink:title="clk_domain=board.clk_domain&#10;eventq_index=0&#10;fake_mem=false&#10;pio_addr=0&#10;pio_latency=100000&#10;pio_size=8&#10;power_model=&#10;power_state=board.cache_hierarchy.membus.badaddr_responder.power_state&#10;&#13;et_bad_addr=true&#10;&#13;et_data16=65535&#10;&#13;et_data32=4294967295&#10;&#13;et_data64=18446744073709551615&#10;&#13;et_data8=255&#10;system=board&#10;update_data=false&#10;warn_access=">
<path fill="#c7a793" stroke="#000000" d="M170,-40C170,-40 284,-40 284,-40 290,-40 296,-46 296,-52 296,-52 296,-118 296,-118 296,-124 290,-130 284,-130 284,-130 170,-130 170,-130 164,-130 158,-124 158,-118 158,-118 158,-52 158,-52 158,-46 164,-40 170,-40"/>
<text text-anchor="middle" x="227" y="-114.8" font-family="Arial" font-size="14.00" fill="#000000">badaddr_responder </text>
<text text-anchor="middle" x="227" y="-99.8" font-family="Arial" font-size="14.00" fill="#000000">: BadAddr</text>
</a>
</g>
</g>
<g id="clust166" class="cluster">
<title>cluster_board_cache_hierarchy_l1icaches</title>
<g id="a_clust166"><a xlink:title="addr_ranges=0:18446744073709551615&#10;assoc=8&#10;clk_domain=board.clk_domain&#10;clusivity=mostly_incl&#10;compressor=Null&#10;data_latency=1&#10;demand_mshr_reserve=1&#10;eventq_index=0&#10;is_read_only=false&#10;max_miss_count=0&#10;move_contractions=true&#10;mshrs=16&#10;partitioning_manager=Null&#10;power_model=&#10;power_state=board.cache_hierarchy.l1icaches.power_state&#10;prefetcher=board.cache_hierarchy.l1icaches.prefetcher&#10;&#13;eplace_expansions=true&#10;&#13;eplacement_policy=board.cache_hierarchy.l1icaches.replacement_policy&#10;&#13;esponse_latency=1&#10;sequential_access=false&#10;size=65536&#10;system=board&#10;tag_latency=1&#10;tags=board.cache_hierarchy.l1icaches.tags&#10;tgts_per_mshr=20&#10;warmup_percentage=0&#10;write_allocator=Null&#10;write_buffers=8&#10;writeback_clean=true">
<path fill="#9f9c95" stroke="#000000" d="M506,-40C506,-40 668,-40 668,-40 674,-40 680,-46 680,-52 680,-52 680,-118 680,-118 680,-124 674,-130 668,-130 668,-130 506,-130 506,-130 500,-130 494,-124 494,-118 494,-118 494,-52 494,-52 494,-46 500,-40 506,-40"/>
<text text-anchor="middle" x="587" y="-114.8" font-family="Arial" font-size="14.00" fill="#000000">l1icaches </text>
<text text-anchor="middle" x="587" y="-99.8" font-family="Arial" font-size="14.00" fill="#000000">: L1ICache</text>
</a>
</g>
</g>
<g id="clust176" class="cluster">
<title>cluster_board_cache_hierarchy_l1dcaches</title>
<g id="a_clust176"><a xlink:title="addr_ranges=0:18446744073709551615&#10;assoc=8&#10;clk_domain=board.clk_domain&#10;clusivity=mostly_incl&#10;compressor=Null&#10;data_latency=1&#10;demand_mshr_reserve=1&#10;eventq_index=0&#10;is_read_only=false&#10;max_miss_count=0&#10;move_contractions=true&#10;mshrs=16&#10;partitioning_manager=Null&#10;power_model=&#10;power_state=board.cache_hierarchy.l1dcaches.power_state&#10;prefetcher=board.cache_hierarchy.l1dcaches.prefetcher&#10;&#13;eplace_expansions=true&#10;&#13;eplacement_policy=board.cache_hierarchy.l1dcaches.replacement_policy&#10;&#13;esponse_latency=1&#10;sequential_access=false&#10;size=65536&#10;system=board&#10;tag_latency=1&#10;tags=board.cache_hierarchy.l1dcaches.tags&#10;tgts_per_mshr=20&#10;warmup_percentage=0&#10;write_allocator=Null&#10;write_buffers=8&#10;writeback_clean=false">
<path fill="#9f9c95" stroke="#000000" d="M700,-40C700,-40 862,-40 862,-40 868,-40 874,-46 874,-52 874,-52 874,-118 874,-118 874,-124 868,-130 862,-130 862,-130 700,-130 700,-130 694,-130 688,-124 688,-118 688,-118 688,-52 688,-52 688,-46 694,-40 700,-40"/>
<text text-anchor="middle" x="781" y="-114.8" font-family="Arial" font-size="14.00" fill="#000000">l1dcaches </text>
<text text-anchor="middle" x="781" y="-99.8" font-family="Arial" font-size="14.00" fill="#000000">: L1DCache</text>
</a>
</g>
</g>
<!-- board_system_port -->
<g id="node1" class="node">
<title>board_system_port</title>
<path fill="#b6b8bc" stroke="#000000" d="M103.5,-398C103.5,-398 36.5,-398 36.5,-398 30.5,-398 24.5,-392 24.5,-386 24.5,-386 24.5,-374 24.5,-374 24.5,-368 30.5,-362 36.5,-362 36.5,-362 103.5,-362 103.5,-362 109.5,-362 115.5,-368 115.5,-374 115.5,-374 115.5,-386 115.5,-386 115.5,-392 109.5,-398 103.5,-398"/>
<text text-anchor="middle" x="70" y="-376.3" font-family="Arial" font-size="14.00" fill="#000000">system_port</text>
</g>
<!-- board_cache_hierarchy_membus_cpu_side_ports -->
<g id="node7" class="node">
<title>board_cache_hierarchy_membus_cpu_side_ports</title>
<path fill="#586070" stroke="#000000" d="M466,-214C466,-214 382,-214 382,-214 376,-214 370,-208 370,-202 370,-202 370,-190 370,-190 370,-184 376,-178 382,-178 382,-178 466,-178 466,-178 472,-178 478,-184 478,-190 478,-190 478,-202 478,-202 478,-208 472,-214 466,-214"/>
<text text-anchor="middle" x="424" y="-192.3" font-family="Arial" font-size="14.00" fill="#000000">cpu_side_ports</text>
</g>
<!-- board_system_port&#45;&gt;board_cache_hierarchy_membus_cpu_side_ports -->
<g id="edge1" class="edge">
<title>board_system_port&#45;&gt;board_cache_hierarchy_membus_cpu_side_ports</title>
<path fill="none" stroke="black" d="M90.53,-361.8C110.63,-346.11 142.83,-323.9 175,-314 194.77,-307.91 343.31,-316.72 361,-306 390.87,-287.9 407.99,-249.93 416.65,-223.94"/>
<polygon fill="black" stroke="black" points="420.02,-224.89 419.66,-214.31 413.34,-222.81 420.02,-224.89"/>
</g>
<!-- board_processor_cores_core_icache_port -->
<g id="node2" class="node">
<title>board_processor_cores_core_icache_port</title>
<path fill="#959ead" stroke="#000000" d="M754,-398C754,-398 692,-398 692,-398 686,-398 680,-392 680,-386 680,-386 680,-374 680,-374 680,-368 686,-362 692,-362 692,-362 754,-362 754,-362 760,-362 766,-368 766,-374 766,-374 766,-386 766,-386 766,-392 760,-398 754,-398"/>
<text text-anchor="middle" x="723" y="-376.3" font-family="Arial" font-size="14.00" fill="#000000">icache_port</text>
</g>
<!-- board_cache_hierarchy_l1icaches_cpu_side -->
<g id="node11" class="node">
<title>board_cache_hierarchy_l1icaches_cpu_side</title>
<path fill="#7f7c77" stroke="#000000" d="M659.5,-84C659.5,-84 612.5,-84 612.5,-84 606.5,-84 600.5,-78 600.5,-72 600.5,-72 600.5,-60 600.5,-60 600.5,-54 606.5,-48 612.5,-48 612.5,-48 659.5,-48 659.5,-48 665.5,-48 671.5,-54 671.5,-60 671.5,-60 671.5,-72 671.5,-72 671.5,-78 665.5,-84 659.5,-84"/>
<text text-anchor="middle" x="636" y="-62.3" font-family="Arial" font-size="14.00" fill="#000000">cpu_side</text>
</g>
<!-- board_processor_cores_core_icache_port&#45;&gt;board_cache_hierarchy_l1icaches_cpu_side -->
<g id="edge2" class="edge">
<title>board_processor_cores_core_icache_port&#45;&gt;board_cache_hierarchy_l1icaches_cpu_side</title>
<path fill="none" stroke="black" d="M718.2,-361.78C703.82,-310.22 661.02,-156.74 643.55,-94.09"/>
<polygon fill="black" stroke="black" points="646.84,-92.86 640.79,-84.17 640.1,-94.74 646.84,-92.86"/>
</g>
<!-- board_processor_cores_core_dcache_port -->
<g id="node3" class="node">
<title>board_processor_cores_core_dcache_port</title>
<path fill="#959ead" stroke="#000000" d="M863.5,-398C863.5,-398 796.5,-398 796.5,-398 790.5,-398 784.5,-392 784.5,-386 784.5,-386 784.5,-374 784.5,-374 784.5,-368 790.5,-362 796.5,-362 796.5,-362 863.5,-362 863.5,-362 869.5,-362 875.5,-368 875.5,-374 875.5,-374 875.5,-386 875.5,-386 875.5,-392 869.5,-398 863.5,-398"/>
<text text-anchor="middle" x="830" y="-376.3" font-family="Arial" font-size="14.00" fill="#000000">dcache_port</text>
</g>
<!-- board_cache_hierarchy_l1dcaches_cpu_side -->
<g id="node13" class="node">
<title>board_cache_hierarchy_l1dcaches_cpu_side</title>
<path fill="#7f7c77" stroke="#000000" d="M853.5,-84C853.5,-84 806.5,-84 806.5,-84 800.5,-84 794.5,-78 794.5,-72 794.5,-72 794.5,-60 794.5,-60 794.5,-54 800.5,-48 806.5,-48 806.5,-48 853.5,-48 853.5,-48 859.5,-48 865.5,-54 865.5,-60 865.5,-60 865.5,-72 865.5,-72 865.5,-78 859.5,-84 853.5,-84"/>
<text text-anchor="middle" x="830" y="-62.3" font-family="Arial" font-size="14.00" fill="#000000">cpu_side</text>
</g>
<!-- board_processor_cores_core_dcache_port&#45;&gt;board_cache_hierarchy_l1dcaches_cpu_side -->
<g id="edge3" class="edge">
<title>board_processor_cores_core_dcache_port&#45;&gt;board_cache_hierarchy_l1dcaches_cpu_side</title>
<path fill="none" stroke="black" d="M830,-361.78C830,-310.32 830,-157.37 830,-94.48"/>
<polygon fill="black" stroke="black" points="833.5,-94.17 830,-84.17 826.5,-94.17 833.5,-94.17"/>
</g>
<!-- board_processor_cores_core_mmu_itb_walker_port -->
<g id="node4" class="node">
<title>board_processor_cores_core_mmu_itb_walker_port</title>
<path fill="#6a6863" stroke="#000000" d="M546,-398C546,-398 516,-398 516,-398 510,-398 504,-392 504,-386 504,-386 504,-374 504,-374 504,-368 510,-362 516,-362 516,-362 546,-362 546,-362 552,-362 558,-368 558,-374 558,-374 558,-386 558,-386 558,-392 552,-398 546,-398"/>
<text text-anchor="middle" x="531" y="-376.3" font-family="Arial" font-size="14.00" fill="#000000">port</text>
</g>
<!-- board_processor_cores_core_mmu_itb_walker_port&#45;&gt;board_cache_hierarchy_membus_cpu_side_ports -->
<g id="edge4" class="edge">
<title>board_processor_cores_core_mmu_itb_walker_port&#45;&gt;board_cache_hierarchy_membus_cpu_side_ports</title>
<path fill="none" stroke="black" d="M520.93,-361.88C502.13,-329.9 461.58,-260.93 439.35,-223.11"/>
<polygon fill="black" stroke="black" points="442.2,-221.06 434.12,-214.21 436.17,-224.6 442.2,-221.06"/>
</g>
<!-- board_processor_cores_core_mmu_dtb_walker_port -->
<g id="node5" class="node">
<title>board_processor_cores_core_mmu_dtb_walker_port</title>
<path fill="#6a6863" stroke="#000000" d="M439,-398C439,-398 409,-398 409,-398 403,-398 397,-392 397,-386 397,-386 397,-374 397,-374 397,-368 403,-362 409,-362 409,-362 439,-362 439,-362 445,-362 451,-368 451,-374 451,-374 451,-386 451,-386 451,-392 445,-398 439,-398"/>
<text text-anchor="middle" x="424" y="-376.3" font-family="Arial" font-size="14.00" fill="#000000">port</text>
</g>
<!-- board_processor_cores_core_mmu_dtb_walker_port&#45;&gt;board_cache_hierarchy_membus_cpu_side_ports -->
<g id="edge5" class="edge">
<title>board_processor_cores_core_mmu_dtb_walker_port&#45;&gt;board_cache_hierarchy_membus_cpu_side_ports</title>
<path fill="none" stroke="black" d="M424,-361.88C424,-330.31 424,-262.67 424,-224.57"/>
<polygon fill="black" stroke="black" points="427.5,-224.21 424,-214.21 420.5,-224.21 427.5,-224.21"/>
</g>
<!-- board_memory_mem_ctrl_port -->
<g id="node6" class="node">
<title>board_memory_mem_ctrl_port</title>
<path fill="#7f7c77" stroke="#000000" d="M236,-398C236,-398 206,-398 206,-398 200,-398 194,-392 194,-386 194,-386 194,-374 194,-374 194,-368 200,-362 206,-362 206,-362 236,-362 236,-362 242,-362 248,-368 248,-374 248,-374 248,-386 248,-386 248,-392 242,-398 236,-398"/>
<text text-anchor="middle" x="221" y="-376.3" font-family="Arial" font-size="14.00" fill="#000000">port</text>
</g>
<!-- board_cache_hierarchy_membus_mem_side_ports -->
<g id="node8" class="node">
<title>board_cache_hierarchy_membus_mem_side_ports</title>
<path fill="#586070" stroke="#000000" d="M340,-214C340,-214 246,-214 246,-214 240,-214 234,-208 234,-202 234,-202 234,-190 234,-190 234,-184 240,-178 246,-178 246,-178 340,-178 340,-178 346,-178 352,-184 352,-190 352,-190 352,-202 352,-202 352,-208 346,-214 340,-214"/>
<text text-anchor="middle" x="293" y="-192.3" font-family="Arial" font-size="14.00" fill="#000000">mem_side_ports</text>
</g>
<!-- board_memory_mem_ctrl_port&#45;&gt;board_cache_hierarchy_membus_mem_side_ports -->
<g id="edge6" class="edge">
<title>board_memory_mem_ctrl_port&#45;&gt;board_cache_hierarchy_membus_mem_side_ports</title>
<path fill="none" stroke="black" d="M231.48,-352.51C246.46,-314.65 273.57,-246.12 286.19,-214.21"/>
<polygon fill="black" stroke="black" points="228.2,-351.29 227.77,-361.88 234.71,-353.87 228.2,-351.29"/>
</g>
<!-- board_cache_hierarchy_l1icaches_mem_side -->
<g id="node12" class="node">
<title>board_cache_hierarchy_l1icaches_mem_side</title>
<path fill="#7f7c77" stroke="#000000" d="M570,-84C570,-84 514,-84 514,-84 508,-84 502,-78 502,-72 502,-72 502,-60 502,-60 502,-54 508,-48 514,-48 514,-48 570,-48 570,-48 576,-48 582,-54 582,-60 582,-60 582,-72 582,-72 582,-78 576,-84 570,-84"/>
<text text-anchor="middle" x="542" y="-62.3" font-family="Arial" font-size="14.00" fill="#000000">mem_side</text>
</g>
<!-- board_cache_hierarchy_membus_cpu_side_ports&#45;&gt;board_cache_hierarchy_l1icaches_mem_side -->
<g id="edge7" class="edge">
<title>board_cache_hierarchy_membus_cpu_side_ports&#45;&gt;board_cache_hierarchy_l1icaches_mem_side</title>
<path fill="none" stroke="black" d="M446.7,-170.37C469.95,-145.16 505.49,-106.6 525.96,-84.4"/>
<polygon fill="black" stroke="black" points="444.12,-168.01 439.91,-177.74 449.27,-172.76 444.12,-168.01"/>
</g>
<!-- board_cache_hierarchy_l1dcaches_mem_side -->
<g id="node14" class="node">
<title>board_cache_hierarchy_l1dcaches_mem_side</title>
<path fill="#7f7c77" stroke="#000000" d="M764,-84C764,-84 708,-84 708,-84 702,-84 696,-78 696,-72 696,-72 696,-60 696,-60 696,-54 702,-48 708,-48 708,-48 764,-48 764,-48 770,-48 776,-54 776,-60 776,-60 776,-72 776,-72 776,-78 770,-84 764,-84"/>
<text text-anchor="middle" x="736" y="-62.3" font-family="Arial" font-size="14.00" fill="#000000">mem_side</text>
</g>
<!-- board_cache_hierarchy_membus_cpu_side_ports&#45;&gt;board_cache_hierarchy_l1dcaches_mem_side -->
<g id="edge8" class="edge">
<title>board_cache_hierarchy_membus_cpu_side_ports&#45;&gt;board_cache_hierarchy_l1dcaches_mem_side</title>
<path fill="none" stroke="black" d="M488.21,-190.22C543.7,-183.59 624.17,-167.75 684,-130 702.23,-118.5 717.14,-98.44 726.25,-84.05"/>
<polygon fill="black" stroke="black" points="487.7,-186.76 478.15,-191.36 488.48,-193.72 487.7,-186.76"/>
</g>
<!-- board_cache_hierarchy_membus_default -->
<g id="node9" class="node">
<title>board_cache_hierarchy_membus_default</title>
<path fill="#586070" stroke="#000000" d="M203.5,-214C203.5,-214 170.5,-214 170.5,-214 164.5,-214 158.5,-208 158.5,-202 158.5,-202 158.5,-190 158.5,-190 158.5,-184 164.5,-178 170.5,-178 170.5,-178 203.5,-178 203.5,-178 209.5,-178 215.5,-184 215.5,-190 215.5,-190 215.5,-202 215.5,-202 215.5,-208 209.5,-214 203.5,-214"/>
<text text-anchor="middle" x="187" y="-192.3" font-family="Arial" font-size="14.00" fill="#000000">default</text>
</g>
<!-- board_cache_hierarchy_membus_badaddr_responder_pio -->
<g id="node10" class="node">
<title>board_cache_hierarchy_membus_badaddr_responder_pio</title>
<path fill="#9f8575" stroke="#000000" d="M208,-84C208,-84 178,-84 178,-84 172,-84 166,-78 166,-72 166,-72 166,-60 166,-60 166,-54 172,-48 178,-48 178,-48 208,-48 208,-48 214,-48 220,-54 220,-60 220,-60 220,-72 220,-72 220,-78 214,-84 208,-84"/>
<text text-anchor="middle" x="193" y="-62.3" font-family="Arial" font-size="14.00" fill="#000000">pio</text>
</g>
<!-- board_cache_hierarchy_membus_default&#45;&gt;board_cache_hierarchy_membus_badaddr_responder_pio -->
<g id="edge9" class="edge">
<title>board_cache_hierarchy_membus_default&#45;&gt;board_cache_hierarchy_membus_badaddr_responder_pio</title>
<path fill="none" stroke="black" d="M187.81,-177.74C188.81,-156.36 190.53,-119.69 191.71,-94.44"/>
<polygon fill="black" stroke="black" points="195.21,-94.55 192.18,-84.4 188.22,-94.22 195.21,-94.55"/>
</g>
</g>
</svg>
